<?xml version="1.0" encoding="utf-8"?>
<!-- Generator: Adobe Illustrator 23.0.0, SVG Export Plug-In . SVG Version: 6.00 Build 0)  -->
<svg version="1.1" id="Ebene_1" xmlns="http://www.w3.org/2000/svg" xmlns:xlink="http://www.w3.org/1999/xlink" x="0px" y="0px" width="256" height="256"
	 viewBox="0 0 231.5 231" style="enable-background:new 0 0 231.5 231;" xml:space="preserve">
<style type="text/css">
	.st0{fill:#01A0C6;}
	.st1{fill:#FFFFFF;}
</style>
<rect x="0.17" y="-0.23" class="st0" width="231.33" height="231.33"/>
<g>
	<path class="st1" d="M103.45,136.89c-1.72,2.19-3.01,5.09-3.01,5.83c0,0.57,0.72,1.02,2.29,1.02c3.14,0,8.6-1.44,15.19-5.96
		c5.6-3.94,10.18-8.16,10.18-12.52c0-3.06-2.01-4.64-4.58-4.64C118.51,120.61,111.9,125.83,103.45,136.89 M147.03,121.03
		c0,5.67-2.86,10.64-8.03,14.99c-5.45,4.66-12.76,6.85-17.62,8.16c-1.01,0.29-1.16,1.3-0.85,2.47c1.29,5.67,2.58,14.69,6.59,14.69
		c2.86,0,7.16-4.21,10.32-7.56c1.29-0.44,2.87,0.86,3.14,2.46c-3.43,7-12.46,16.3-23.21,16.3c-4.01,0-7.03-2.18-8.75-5.68
		c-1.72-3.49-3.01-8.29-4.14-13.52c-0.44-1.9-1.16-4.08-2.88-4.08c-3.14,0-3.86,1.46-5.3,5.23l-5.87,15.43
		c-0.87,2.18-4.01,2.62-6.74,2.62c-3.58,0-9.89-1.15-8.31-5.83l27.09-81.2c1.72-5.22,1.42-6.84-1.16-8.28l-4.01-2.34
		c-0.43-1.16-0.43-2.46,0.72-3.48c4.59-1.9,19.36-4.65,26.38-4.96c1,0.16,1.44,0.6,1.44,1.46c-2.29,6.12-4.17,11.21-6.89,18.92
		l-14.19,41.04h0.44c3.42-4.36,7.59-8.59,12.17-11.79c5.74-4.07,10.61-5.81,17.5-5.81C143.16,110.27,147.03,115.51,147.03,121.03
		 M58.01,99.63c-4.72,6.4-7.31,13.69-7.31,17.32c0,2.19,1.16,3.66,2.44,3.66c1.44,0,4.73-1.75,8.75-6.12
		C69.2,106.34,73.64,96,73.64,91.92c0-2.47-0.72-3.79-2.3-3.79C69.33,88.14,63.61,92.08,58.01,99.63 M37.65,115.51
		c0-4.07,1.72-9.17,4.17-15.57l11.89-30.86c1-2.48,0.87-3.34-1.13-4.52l-2.73-1.59c-0.44-1.02-0.16-2.48,0.72-2.92
		c3.57-1.31,14.46-3.34,20.48-3.48c0.72,0.14,1.16,0.72,1.3,1.6c-1.58,3.78-3.15,7.42-5.31,12.65L57.6,93.83h0.28
		c3.58-4.52,11.61-11.81,19.36-11.81c8.31,0,10.6,6.56,10.6,10.34c0,4.21-1.44,12.22-8.6,19.93c-7.3,7.87-17.34,13.38-28.95,13.38
		C42.25,125.68,37.65,121.75,37.65,115.51"/>
	<path class="st1" d="M160.64,145.04c-8.7,0-14.56,7.98-14.56,15.96c0,7.47,5.03,11.88,11.54,11.88c8.2,0,14.22-6.79,14.22-15.28
		C171.85,149.8,167.33,145.04,160.64,145.04 M184.39,60.85c-7.36,0-12.21,1.53-13.71,6.96c-1,3.74-1.84,10.87-3.01,20.2l-6.01,47.7
		c1.83,1.19,5.18,1.19,6.68,0l18.73-48.04c3.52-9,6.69-16.13,7.36-19.87C195.26,63.05,191.75,60.85,184.39,60.85"/>
</g>
</svg>
